<svg width="75" height="56" viewBox="0 0 75 56" fill="none" xmlns="http://www.w3.org/2000/svg">
<path d="M27.9075 27.9075C31.6083 27.9075 35.1575 26.4374 37.7743 23.8206C40.3912 21.2037 41.8613 17.6545 41.8613 13.9538C41.8613 10.253 40.3912 6.7038 37.7743 4.08696C35.1575 1.47012 31.6083 0 27.9075 0C24.2068 0 20.6576 1.47012 18.0407 4.08696C15.4239 6.7038 13.9538 10.253 13.9538 13.9538C13.9538 17.6545 15.4239 21.2037 18.0407 23.8206C20.6576 26.4374 24.2068 27.9075 27.9075 27.9075ZM4.65125 55.815C4.65125 55.815 0 55.815 0 51.1638C0 46.5125 4.65125 32.5588 27.9075 32.5588C51.1638 32.5588 55.815 46.5125 55.815 51.1638C55.815 55.815 51.1638 55.815 51.1638 55.815H4.65125ZM51.1638 6.97688C51.1638 6.36009 51.4088 5.76855 51.8449 5.33241C52.2811 4.89627 52.8726 4.65125 53.4894 4.65125H72.0944C72.7112 4.65125 73.3028 4.89627 73.7389 5.33241C74.175 5.76855 74.4201 6.36009 74.4201 6.97688C74.4201 7.59367 74.175 8.18521 73.7389 8.62135C73.3028 9.05749 72.7112 9.30251 72.0944 9.30251H53.4894C52.8726 9.30251 52.2811 9.05749 51.8449 8.62135C51.4088 8.18521 51.1638 7.59367 51.1638 6.97688ZM53.4894 18.605C52.8726 18.605 52.2811 18.85 51.8449 19.2862C51.4088 19.7223 51.1638 20.3138 51.1638 20.9306C51.1638 21.5474 51.4088 22.139 51.8449 22.5751C52.2811 23.0112 52.8726 23.2563 53.4894 23.2563H72.0944C72.7112 23.2563 73.3028 23.0112 73.7389 22.5751C74.175 22.139 74.4201 21.5474 74.4201 20.9306C74.4201 20.3138 74.175 19.7223 73.7389 19.2862C73.3028 18.85 72.7112 18.605 72.0944 18.605H53.4894ZM62.7919 32.5588C62.1751 32.5588 61.5836 32.8038 61.1475 33.2399C60.7113 33.6761 60.4663 34.2676 60.4663 34.8844C60.4663 35.5012 60.7113 36.0927 61.1475 36.5289C61.5836 36.965 62.1751 37.21 62.7919 37.21H72.0944C72.7112 37.21 73.3028 36.965 73.7389 36.5289C74.175 36.0927 74.4201 35.5012 74.4201 34.8844C74.4201 34.2676 74.175 33.6761 73.7389 33.2399C73.3028 32.8038 72.7112 32.5588 72.0944 32.5588H62.7919ZM62.7919 46.5125C62.1751 46.5125 61.5836 46.7576 61.1475 47.1937C60.7113 47.6298 60.4663 48.2214 60.4663 48.8382C60.4663 49.455 60.7113 50.0465 61.1475 50.4826C61.5836 50.9188 62.1751 51.1638 62.7919 51.1638H72.0944C72.7112 51.1638 73.3028 50.9188 73.7389 50.4826C74.175 50.0465 74.4201 49.455 74.4201 48.8382C74.4201 48.2214 74.175 47.6298 73.7389 47.1937C73.3028 46.7576 72.7112 46.5125 72.0944 46.5125H62.7919Z" fill="white"/>
</svg>
